<svg xmlns="http://www.w3.org/2000/svg" xmlns:xlink="http://www.w3.org/1999/xlink" version="1.1">
<symbol id="canny-vision" viewBox="0 0 512 512" style="enable-background:new 0 0 512 512;" xml:space="preserve">
<g>
        <g>
                <circle fill="var(--cv-st0)" cx="255.89" cy="177.04" r="21.66"/>
                <circle fill="var(--cv-st1)" cx="255.97" cy="177.74" r="10.19"/>
                <circle fill="var(--cv-st2)" cx="264.83" cy="170.32" r="6.5"/>
                <path fill="url(#cv-grad)" d="M217.14,144.59c-0.54-0.12-1.1-0.18-1.68-0.18c-2.77,0-5.21,1.42-6.63,3.56c-12.94,0-25.82,0-38.8,0    c-1.26-2.12-3.55-3.56-6.2-3.56c-3.99,0-7.23,3.24-7.23,7.23s3.24,7.23,7.23,7.23c2.64,0,4.92-1.43,6.18-3.53    c12.97,0,25.55,0,38.06,0c1.18,2.93,4.03,5.01,7.39,5.01c4.4,0,7.97-3.57,7.97-7.97c0-1.26-0.32-2.44-0.84-3.5    c2.74-5.22,15.54-13.43,21.36-13.85c0,3.37,0.01,6.73-0.01,10.07c-3.23,1.25-5.96,2.9-8.54,4.84c-2.53,1.91-4.84,4.05-6.59,6.69    c-1.77,2.66-3.31,5.47-4.99,8.28c-10.94,0-21.91,0-33.01,0c-1.21-2.18-3.51-3.68-6.18-3.68c-3.92,0-7.1,3.18-7.1,7.1    s3.18,7.1,7.1,7.1c2.5,0,4.69-1.3,5.95-3.25c12.76,0,25.66,0,38.64,0c1.2-5.56,3.66-10.36,7.58-14.36    c3.97-4.06,8.87-6.47,14.27-7.63c0-7.92,0-15.67,0-23.59C237.21,128.15,225.94,134.22,217.14,144.59z M163.84,155.47    c-2.12,0-3.84-1.72-3.84-3.84s1.72-3.84,3.84-3.84s3.84,1.72,3.84,3.84S165.95,155.47,163.84,155.47z M215.46,157.24    c-2.69,0-4.87-2.18-4.87-4.87s2.18-4.87,4.87-4.87c2.69,0,4.87,2.18,4.87,4.87S218.15,157.24,215.46,157.24z M184.62,172.66    c-2.39,0-4.34-1.94-4.34-4.34c0-2.39,1.94-4.34,4.34-4.34c2.39,0,4.34,1.94,4.34,4.34C188.96,170.72,187.01,172.66,184.62,172.66z     M229.14,181.51c-27.4,0-54.67,0-81.82,0c-1.28-1.87-3.42-3.09-5.85-3.09c-3.91,0-7.08,3.17-7.08,7.08s3.17,7.08,7.08,7.08    c2.67,0,4.97-1.5,6.18-3.69c25.58,0,50.95,0,76.42,0c2.14,4.38,4.45,8.58,7.94,12.04c3.47,3.44,7.58,5.87,11.98,7.85    c0,5.85,0,11.5,0,17.21c1.45,0.61,4.64,1.37,7.12,1.03c0-7.9,0-15.65,0-23.42C239.13,200.87,232.03,193.29,229.14,181.51z     M141.47,189.83c-2.39,0-4.33-1.94-4.33-4.33s1.94-4.33,4.33-4.33c2.39,0,4.33,1.94,4.33,4.33S143.86,189.83,141.47,189.83z     M231.52,209.39c-1.34,0-2.59,0.37-3.7,0.96c-4.88-3.59-7.93-8.48-10.97-13.34c-8.55,0-16.98,0-25.34,0    c-1.24-2.27-3.63-3.83-6.4-3.83c-4.04,0-7.32,3.28-7.32,7.32c0,4.04,3.28,7.32,7.32,7.32c2.63,0,4.91-1.39,6.2-3.47    c7.58,0,14.99,0,22.44,0c2.72,4.44,6.3,8.08,9.98,11.48c-0.09,0.48-0.15,0.97-0.15,1.48c0,4.38,3.55,7.92,7.92,7.92    c4.38,0,7.92-3.55,7.92-7.92C239.44,212.94,235.89,209.39,231.52,209.39z M185.12,204.97c-2.47,0-4.47-2-4.47-4.47    c0-2.47,2-4.47,4.47-4.47c2.47,0,4.47,2,4.47,4.47C189.59,202.97,187.59,204.97,185.12,204.97z M231.52,222.16    c-2.67,0-4.84-2.17-4.84-4.84c0-2.67,2.17-4.84,4.84-4.84c2.67,0,4.84,2.17,4.84,4.84C236.36,219.99,234.19,222.16,231.52,222.16z     M348.29,195.25c-2.44,0-4.58,1.27-5.81,3.18c-12.98,0-25.79,0-38.52,0c-1.18-2.9-4.01-4.94-7.33-4.94    c-4.37,0-7.92,3.55-7.92,7.92c0,1.29,0.34,2.49,0.88,3.56c0.01,0.03,0.01,0.07,0.02,0.1c-0.49,0.61-0.98,1.36-1.6,1.97    c-1.15,1.12-2.39,2.16-3.58,3.24c-4.31,3.89-9.32,6.53-14.79,8.36c-0.41,0.14-0.85,0.15-1.38,0.25c0-3.5,0-6.79,0-10.25    c4.51-1.82,8.5-4.43,12-7.84c3.52-3.43,5.73-7.69,7.84-11.94c11.17,0,22.11,0,33.19,0c1.21,2.13,3.47,3.58,6.09,3.58    c3.88,0,7.03-3.15,7.03-7.03c0-3.88-3.15-7.03-7.03-7.03c-2.49,0-4.66,1.3-5.91,3.26c-12.74,0-25.63,0-38.52,0    c-2.95,11.75-10.03,19.24-21.92,21.97c0,7.75,0,15.5,0,23.63c13.87-1.66,25.16-7.7,33.98-18.08c0.53,0.11,1.07,0.17,1.63,0.17    c2.73,0,5.14-1.39,6.57-3.49c13.16,0,26.23,0,39.25,0c1.22,1.95,3.38,3.25,5.85,3.25c3.82,0,6.92-3.1,6.92-6.92    C355.21,198.35,352.11,195.25,348.29,195.25z M327.37,181.12c2.37,0,4.29,1.92,4.29,4.29c0,2.37-1.92,4.29-4.29,4.29    c-2.37,0-4.29-1.92-4.29-4.29C323.08,183.04,325,181.12,327.37,181.12z M296.63,206.25c-2.67,0-4.84-2.17-4.84-4.84    c0-2.67,2.17-4.84,4.84-4.84c2.67,0,4.84,2.17,4.84,4.84C301.47,204.08,299.3,206.25,296.63,206.25z M348.29,206.4    c-2.33,0-4.23-1.89-4.23-4.23s1.89-4.23,4.23-4.23s4.23,1.89,4.23,4.23S350.62,206.4,348.29,206.4z M370.61,161.34    c-2.61,0-4.85,1.44-6.06,3.55c-25.6,0-50.99,0-76.58,0c-1.97-4.41-4.32-8.57-7.84-12.01c-3.49-3.41-7.54-5.91-11.98-7.92    c0-5.76,0-11.41,0-17.18c-2.29-0.78-4.65-1.18-7.11-1.08c0,7.93,0,15.73,0,23.47c11.91,2.82,18.98,10.31,21.92,22.01    c27.34,0,54.63,0,81.81,0c1.25,1.9,3.4,3.15,5.84,3.15c3.86,0,7-3.13,7-7C377.61,164.47,374.48,161.34,370.61,161.34z     M370.61,172.61c-2.36,0-4.27-1.91-4.27-4.27s1.91-4.27,4.27-4.27c2.36,0,4.27,1.91,4.27,4.27S372.97,172.61,370.61,172.61z     M327.19,145.82c-2.73,0-5.1,1.47-6.42,3.64c-7.23,0-14.75,0-22.39,0c-2.58-4.55-6.4-8.03-10.02-11.56    c0.09-0.48,0.15-0.98,0.15-1.49c0-4.4-3.57-7.97-7.97-7.97c-4.4,0-7.97,3.57-7.97,7.97c0,4.4,3.57,7.97,7.97,7.97    c1.39,0,2.68-0.39,3.82-1.02c1.14,1.04,2.37,2.07,3.48,3.23c2.92,3.02,5.25,6.48,7.31,10.15c8.43,0,16.81,0,25.34,0    c1.24,2.45,3.76,4.14,6.69,4.14c4.16,0,7.53-3.37,7.53-7.53C334.72,149.19,331.35,145.82,327.19,145.82z M280.55,141.28    c-2.69,0-4.87-2.18-4.87-4.87s2.18-4.87,4.87-4.87c2.69,0,4.87,2.18,4.87,4.87S283.24,141.28,280.55,141.28z M327.19,157.95    c-2.54,0-4.6-2.06-4.6-4.6s2.06-4.6,4.6-4.6c2.54,0,4.6,2.06,4.6,4.6S329.73,157.95,327.19,157.95z M256,199.68    c-12.51,0-22.69-10.18-22.69-22.69c0-12.51,10.18-22.69,22.69-22.69c12.51,0,22.69,10.18,22.69,22.69    C278.69,189.5,268.51,199.68,256,199.68z M256,157.34c-10.84,0-19.65,8.82-19.65,19.65c0,10.84,8.82,19.65,19.65,19.65    c10.84,0,19.65-8.82,19.65-19.65C275.66,166.15,266.84,157.34,256,157.34z M406.96,176.8L406.96,176.8    c-48.57-51.63-100.51-76.99-154.21-75.38c-86.03,2.57-147.23,74.78-147.83,75.51l0.13,0.11l-0.01,0.01    c47.13,50.08,97.37,75.45,149.41,75.45c1.6,0,3.2-0.02,4.8-0.07c86.03-2.57,147.23-74.78,147.83-75.51L406.96,176.8z     M259.02,246.35c-50.54,1.51-99.59-21.9-145.81-69.55c14.07-14.99,68.11-67.2,139.77-69.32c50.55-1.51,99.59,21.91,145.81,69.55    C384.72,192.02,330.68,244.23,259.02,246.35z M325.44,276.28h-68.76v-4.32h64.43v-66.12h4.32V276.28z M259.04,274.12    c0,3.02-2.45,5.47-5.47,5.47c-3.02,0-5.47-2.45-5.47-5.47s2.45-5.47,5.47-5.47C256.59,268.65,259.04,271.1,259.04,274.12z     M334.51,285.79h-19.9v-4.32h15.57v-16.16h4.32V285.79z M192.23,147.98h-4.32V77.53h68.76v4.32h-64.43V147.98z M254.31,79.7    c0-3.02,2.45-5.47,5.47-5.47s5.47,2.45,5.47,5.47c0,3.02-2.45,5.47-5.47,5.47S254.31,82.72,254.31,79.7z M183.16,88.51h-4.32    V68.02h19.9v4.32h-15.57V88.51z"/>
        </g>
        <g>
                <path fill="url(#cv-grad)" d="M245.58,331.42    c-1.86,0.19-4.65,4.84-5.77,6.32c-4.46,6.51-9.3,15.44-14.51,19.72c0.74-2.23,1.49-4.09,2.05-6.14c0.74-2.05,2.05-3.72,2.05-6.14    c-0.56-1.3-1.49-2.42-3.72-2.05c-0.07,0.02-0.14,0.05-0.21,0.07c-0.05-0.09-0.1-0.18-0.16-0.26c-2.05,0.56-2.6,2.79-3.53,4.46    c-0.93,1.67-1.86,3.35-2.79,4.84c-2.42,2.98-4.09,6.7-7.44,8.37c-1.3-5.39,0.37-11.91,1.12-17.49c0.19-1.67,0.56-4.46-1.49-5.02    c-2.23,0.74-3.16,2.98-4.28,4.84c-1.3,1.86-2.42,3.91-3.72,5.77c0.37-2.42,4.09-7.63,0-8.56c-2.6,0.93-2.98,4.09-4.65,5.95    c-3.53,5.58-6.51,12.46-10.23,17.67c-0.37,0.74-0.74,1.86-1.86,1.86c-0.93-9.3,1.3-17.86,2.98-26.04c0.56-2.6,1.49-5.58,0.74-8.37    c-0.74-0.37-1.49-0.74-2.05-0.37c-2.05,0.74-3.35,4.28-4.65,6.51c-1.49,2.79-2.98,5.21-3.91,7.07c-2.79,4.84-5.02,10.05-7.81,14.7    c2.98-8.18,5.77-16.37,9.3-23.62c0.19-2.23-1.12-3.35-2.98-2.98c-2.6,0.37-4.09,5.58-5.02,8.19c-1.27,3.05-2.38,6.06-3.39,9.11    c-3.51,6.31-6.6,13.1-10.93,18.23c-0.37-6.51,0.93-13.58,2.05-19.72c0.19-2.05,1.3-5.02,0.74-6.51c-0.19-0.56-0.93-0.74-1.3-1.3    c-0.56-0.74-0.19-1.86-0.93-2.23c-1.3-1.3-4.09-0.93-5.21,0c-2.42,2.23-4.09,5.95-5.77,10.04c-1.14,3.05-2.89,7.04-3.12,10.64    c-4.65,5.7-9.56,11.1-14.74,15.96c-13.58,12.46-28.28,24-46.13,32c-5.77,2.6-13.77,5.39-21.39,3.16    c-13.58-3.72-16-19.9-13.39-36.65c2.23-14.88,7.44-27.53,13.21-38.69c4.65-9.3,10.23-17.67,16.56-25.3    c4.65-5.58,9.86-10.98,16.37-14.88c2.23-1.12,4.84-2.79,8-2.23c2.6,2.6,1.3,8.37,0.56,11.53c-0.74,3.91-1.86,7.63-2.98,10.79    c-1.3,3.53-2.42,7.07-3.72,10.23c-1.49,3.16-3.53,6.51-3.35,10.42c0.74,1.12,1.49,1.86,2.79,1.86c2.42,0,3.35-2.42,4.28-4.46    c2.6-6.32,4.46-13.95,7.81-18.42c1.49,0.19,2.6-0.19,2.98-1.12c0.56-2.05-1.3-3.91-2.98-4.28c2.98-7.81,3.91-22.14-6.32-21.95    c-6.14,0.19-10.6,5.02-14.7,7.81c-4.09,3.16-7.44,7.26-10.98,10.98c-11.35,13.77-20.65,30.32-26.97,49.67    c-3.16,9.12-5.95,21.02-5.02,32.74c0.93,11.72,5.21,19.9,14.32,24c10.98,4.46,22.32-0.56,30.32-4.65    c8.56-4.28,16.37-9.49,23.62-14.88c11.88-8.79,22.77-19.29,32.04-30.88c0.15,0.65,0.37,1.28,0.7,1.86    c0.56,0.19,0.74,0.56,1.49,0.56c2.98-0.56,4.28-3.35,5.58-5.58c1.49-2.42,2.6-5.02,4.09-7.07c-0.56,4.09-1.67,10.23-1.3,15.25    c0.19,1.67,0.74,3.91,2.42,4.09c2.79,0,3.53-3.91,4.84-5.58c1.3-2.23,2.6-4.46,3.72-6.88c0.12-0.2,0.23-0.41,0.35-0.61    c-0.31,1.12-0.61,2.25-0.91,3.4c-0.74,3.16-2.79,8.74,0.93,10.05c3.35-0.93,3.72-5.02,5.58-7.63c4.28-8.56,8.56-18.23,13.58-25.86    c-1.67,8.56-4.28,18.42-2.6,28.46c0.56,3.16,4.65,2.6,5.77,0.19c2.79-3.72,4.84-8.56,7.25-12.09c-0.56,3.35-2.05,6.32-1.67,10.23    c0.56,0.56,0.93,1.12,2.05,1.12c2.23-0.74,2.98-3.53,3.72-5.39c2.79-6.7,5.77-13.39,9.3-18.6c-0.74,4.46-2.05,10.42-1.86,16    c0.19,2.23,0.56,5.02,2.79,5.58c4.84-1.12,6.51-5.39,8.93-8.74c0.03-0.05,0.06-0.1,0.09-0.15c-0.17,0.95-0.28,1.88-0.28,2.76    c0,2.42,0.93,5.02,3.16,5.21c3.16,0,4.09-3.35,6.14-4.65c4.65-6.14,8.37-13.02,13.02-18.97c-7.25,17.86-13.02,39.44-18.23,60.27    c-1.67,7.07-3.91,14.51-4.28,21.76c-0.19,2.05-0.37,5.02,1.67,4.84c1.49-0.19,1.3-1.86,1.12-2.98    c5.58-28.28,14.51-53.02,22.14-79.06c1.12-3.35,3.16-7.07,2.42-11.35C246.51,331.61,246.33,331.42,245.58,331.42z M149.23,358.39    c0.21-0.83,0.47-1.65,0.74-2.46c0.47-0.56,0.84-1.22,0.67-1.89c1.32-3.45,3.02-6.76,4.73-9.79c0.56,0,0.74,0.56,1.12,0.74    C154.25,349.65,152.02,354.3,149.23,358.39z M406.86,292.91c1.3-0.56,0.93-2.05,1.49-2.98c1.12-1.67,2.98-2.98,4.46-4.46    c3.16-3.16,6.14-5.77,9.11-8.93c1.3-1.49,3.53-2.98,3.53-5.39c-2.42-6.32-8.18,0.37-10.79,2.79    c-14.7,13.39-28.46,31.25-38.69,47.44c-13.02,19.72-23.44,42.78-33.11,65.11c3.91-21.02,8.74-44.83,6.32-69.57    c7.25-2.98,14.7-5.77,22.14-8.56c1.12-0.19,2.42-0.93,3.72-1.3c1.12-0.56,3.16-0.56,3.16-2.05c-0.93-1.12-2.42,0-3.35,0.37    c-8.74,2.98-17.86,6.51-25.86,9.49c-2.42-12.09-6.7-22.14-18.42-24.37c-6.32-1.3-12.84,0.74-17.86,2.6    c-5.39,2.23-10.05,4.65-14.32,7.25c-12.65,8-24.74,18.6-34.23,29.95c-3.16,3.72-6.88,8.37-6.7,14.51    c0.37,0.93,1.12,1.67,1.86,2.42c4.28,1.67,10.04,0,14.7-1.49c25.86-7.44,48.74-18.79,72.55-27.72    c1.86,24.74-1.86,48.37-6.14,69.01c-1.49,7.07-2.79,13.95-5.58,20.09c-2.05,6.14-4.46,12.65-5.95,19.53    c-0.56,1.86-2.05,5.39,0.56,6.51c1.86-0.19,2.23-2.6,2.79-4.09l1.67-5.02c2.23-7.07,3.35-14.7,5.95-21.39    c1.49-3.35,2.6-6.7,4.09-9.67c15.63-39.06,35.34-74.78,61.94-102.31C405.93,291.8,405.74,292.91,406.86,292.91z M282.79,340.54    c-5.21,1.86-10.98,3.91-17.11,4.84c-1.86,0.37-4.46,0.56-5.95-1.12c-0.56-3.91,2.05-7.44,4.09-10.04    c6.14-8.37,13.95-15.44,21.76-21.95c10.23-7.81,22.14-18.42,38.51-19.9c14.7-1.3,20.28,10.79,22.14,23.81    C325.38,324.17,304.92,333.1,282.79,340.54z M393.65,330.12c0,1.67-2.42,2.05-2.98,0.37c0-1.12,0-2.42,0.93-2.79    C392.35,326.96,393.65,329.56,393.65,330.12z M425.46,327.7c0.74-0.74,2.05,1.86,2.05,2.42c0,1.67-2.42,2.05-2.98,0.37    C424.53,329.38,424.53,328.07,425.46,327.7z M464.71,350.77c-0.74,1.12-1.3,2.05-2.05,2.79c-1.49,1.67-2.23,4.09-5.39,4.28    c-2.42-1.86,0-8.37-2.6-10.04c-1.3-0.37-1.86,0.74-2.42,0.74c0.74-2.6,2.05-4.46,2.23-7.44c-2.42-3.53-3.91,0.37-5.02,2.79    c-0.04,0.08-0.08,0.16-0.12,0.24c-0.67,0.44-0.81,1.39-1.37,1.81c-0.74,0.74-1.49,1.3-2.05,2.05c-2.05,1.3-3.91,2.79-7.44,2.79    c0-0.74,0.19-1.86-0.19-2.6c0.74-0.74,1.3-1.67,1.12-3.35l-0.56-1.3c-1.67-0.74-2.98-3.16-5.21-2.05    c-0.82,0.98-1.49,2.25-1.64,3.94c-1.29,0.82-2.1,2.34-3.01,3.5c-2.6,3.72-5.21,7.44-7.63,11.16c-1.12,1.86-2.23,3.91-4.09,5.02    v-2.42c0.93-4.65,2.42-10.04,4.28-14.32c0.74-1.3,2.23-2.79,2.05-4.28c0-2.05-3.35-3.35-4.84-1.12c-0.28,0.69-0.58,1.41-0.89,2.16    c-1.44,0.2-2.75,1.49-3.95,1.93c-3.16,2.05-6.14,4.09-9.11,6.32c-1.49,0.74-2.79,2.6-4.28,2.98c-2.05-8.93,4.46-12.65,7.26-18.04    v-1.12c-0.37-0.74-0.93-1.12-1.49-1.67c-0.56-0.19-1.3-0.19-2.05-0.19c0,0.19-0.19,0.19-0.37,0.37c-2.05,0.93-3.53,3.16-4.84,5.77    c-0.78,1.45-1.4,3.04-1.83,4.72c-0.79,0.82-1.41,1.87-2.07,2.72c-2.6,3.72-5.21,7.44-7.63,11.16c-1.12,1.86-2.23,3.91-4.09,5.02    v-2.42c0.93-4.65,2.42-10.04,4.28-14.32c0.74-1.3,2.23-2.79,2.05-4.28c0-2.05-3.35-3.35-4.84-1.12    c-2.23,5.39-5.39,12.84-4.84,20.65c0.19,2.05,0.93,4.28,2.79,4.28c1.86,0.19,3.16-2.05,3.91-3.35c3.16-4.84,5.77-9.67,8.93-13.95    c0.35-0.43,0.65-0.91,0.98-1.39c-0.32,3.07,0.07,6.26,1.44,9.2c-5.39,5.21-11.53,9.49-14.51,17.11v1.3    c1.49,3.35,5.39,0.93,7.63-0.56c4.46-2.98,9.49-7.44,14.14-9.3c1.3-0.56,1.86-0.19,2.79-1.67c0.37-2.6-1.67-3.53-3.91-2.98    c-0.74-1.3-2.05-2.05-2.79-3.53c4.09-3.72,8.74-6.88,13.21-10.04c0.6-0.6,1.49-0.93,2.3-1.33c-1.8,4.73-3.46,10.36-3.05,16.21    c0.19,2.05,0.93,4.28,2.79,4.28c1.86,0.19,3.16-2.05,3.91-3.35c3.16-4.84,5.77-9.67,8.93-13.95c0.22-0.27,0.41-0.55,0.61-0.85    c-1.63,4.16-2.48,9.62-0.8,14.24c0.56,0.74,1.12,1.49,2.23,1.86h1.3c4.09-2.05,5.02-7.63,5.58-13.21c3.72,0,5.77-1.67,8-3.16    c0.33-0.41,0.7-0.79,1.07-1.14c-0.11,0.47,0.04,0.83,0.04,1.33c-0.19,0.93-0.93,2.05-1.12,2.98c-0.93,3.35-2.6,7.81-2.05,10.79    c3.35,2.79,4.46-3.16,5.58-5.58c0.74-0.93,1.12-2.23,1.86-3.35c0.56-1.3,0.93-2.6,1.86-3.16c0,4.09,0,8.37,3.91,8.56    c0.56,0,0.56-0.19,0.93-0.19c2.6-1.12,4.28-3.35,5.77-5.58c1.12-1.67,2.6-3.35,2.79-5.39    C465.64,348.35,465.27,350.02,464.71,350.77z M402.39,363.04c-4.65,2.42-8.56,5.58-12.84,8.56c0,0.19-0.19,0,0,0    c2.79-4.28,6.32-7.81,10.04-10.98C400.35,361.56,401.28,362.3,402.39,363.04z M432.53,362.67c-0.74-3.91,1.12-8,2.42-10.98    c0.56,0,0.93,0.37,1.3,0.37C435.69,356.35,434.76,360.25,432.53,362.67z"/>
        </g>
        <path fill="url(#cv-grad)" d="M80.1,419.14l-10.88,24.42h5.79l2.18-5.23   H88.5l2.17,5.23h5.93l-10.92-24.42H80.1z M78.97,434.04l3.89-9.34l3.87,9.34H78.97z M111.35,419.14H117v24.42h-5.65V419.14z    M174.67,433.23c0.52,0.84,0.78,1.9,0.78,3.17c0,1.37-0.38,2.63-1.15,3.77c-0.77,1.14-1.91,2.06-3.44,2.76   c-1.52,0.7-3.45,1.05-5.77,1.05c-1.95,0-3.83-0.26-5.62-0.78c-1.79-0.52-3.23-1.2-4.32-2.04l1.92-4.26   c1.05,0.74,2.28,1.35,3.71,1.83c1.43,0.48,2.88,0.72,4.34,0.72c1.12,0,2.02-0.11,2.7-0.33c0.69-0.22,1.19-0.53,1.52-0.92   c0.33-0.4,0.49-0.85,0.49-1.36c0-0.65-0.26-1.17-0.77-1.55c-0.51-0.38-1.19-0.7-2.02-0.94c-0.84-0.24-1.76-0.48-2.77-0.7   c-1.01-0.22-2.02-0.49-3.03-0.82c-1.01-0.33-1.94-0.74-2.77-1.26c-0.84-0.51-1.52-1.19-2.04-2.02c-0.52-0.84-0.78-1.91-0.78-3.21   c0-1.4,0.38-2.67,1.13-3.82c0.76-1.15,1.89-2.07,3.42-2.76c1.52-0.69,3.44-1.03,5.74-1.03c1.53,0,3.05,0.18,4.53,0.54   c1.49,0.36,2.8,0.9,3.94,1.62l-1.74,4.29c-1.14-0.65-2.28-1.13-3.42-1.45c-1.14-0.31-2.26-0.47-3.35-0.47   c-1.09,0-1.99,0.13-2.69,0.38c-0.7,0.26-1.2,0.59-1.5,0.99c-0.3,0.41-0.45,0.88-0.45,1.41c0,0.63,0.26,1.13,0.77,1.52   c0.51,0.38,1.19,0.69,2.02,0.92c0.84,0.23,1.76,0.47,2.77,0.7c1.01,0.23,2.02,0.5,3.03,0.8c1.01,0.3,1.94,0.71,2.77,1.22   C173.47,431.72,174.15,432.4,174.67,433.23z M212.9,422.32c-1.2-1.14-2.6-2.02-4.22-2.65c-1.62-0.63-3.39-0.94-5.32-0.94   c-1.91,0-3.67,0.31-5.3,0.94c-1.63,0.63-3.05,1.51-4.26,2.65c-1.21,1.14-2.15,2.48-2.81,4.01s-0.99,3.21-0.99,5.02   s0.33,3.49,0.99,5.02s1.59,2.87,2.79,4.01c1.2,1.14,2.62,2.02,4.26,2.65c1.64,0.63,3.42,0.94,5.35,0.94c1.91,0,3.67-0.31,5.28-0.94   c1.62-0.63,3.02-1.51,4.22-2.63c1.2-1.13,2.13-2.46,2.81-4.01c0.67-1.55,1.01-3.23,1.01-5.04c0-1.84-0.34-3.52-1.01-5.04   C215.03,424.79,214.1,423.46,212.9,422.32z M210.42,434.52c-0.38,0.95-0.92,1.78-1.62,2.48s-1.51,1.23-2.42,1.6   c-0.92,0.37-1.92,0.56-3.02,0.56c-1.09,0-2.1-0.19-3.03-0.56c-0.93-0.37-1.74-0.91-2.42-1.6c-0.69-0.7-1.22-1.53-1.6-2.49   c-0.38-0.96-0.58-2.02-0.58-3.16c0-1.16,0.19-2.22,0.58-3.17c0.38-0.95,0.92-1.78,1.62-2.48s1.51-1.23,2.42-1.6   c0.92-0.37,1.92-0.56,3.02-0.56c1.09,0,2.1,0.19,3.03,0.56c0.93,0.37,1.74,0.91,2.42,1.6c0.69,0.7,1.22,1.52,1.6,2.48   c0.38,0.95,0.58,2.01,0.58,3.17C211,432.51,210.81,433.57,210.42,434.52z M238.83,438.95h12.24v4.6h-17.89v-24.42h5.65V438.95z    M282.47,419.14h5.58v13.67c0,3.58-0.98,6.34-2.93,8.27c-1.95,1.93-4.66,2.9-8.13,2.9c-3.46,0-6.17-0.96-8.13-2.9   c-1.95-1.93-2.93-4.68-2.93-8.27v-13.67h5.65v13.46c0,2.33,0.48,4,1.43,5.02c0.95,1.02,2.29,1.53,4.01,1.53   c1.72,0,3.06-0.51,4.01-1.53c0.95-1.02,1.43-2.7,1.43-5.02V419.14z M302.66,419.14h21.28v4.6h-7.81v19.81h-5.65v-19.81h-7.81   V419.14z M339.18,419.14h5.65v24.42h-5.65V419.14z M384.19,422.32c-1.2-1.14-2.6-2.02-4.22-2.65c-1.62-0.63-3.39-0.94-5.32-0.94   c-1.91,0-3.67,0.31-5.3,0.94c-1.63,0.63-3.05,1.51-4.26,2.65c-1.21,1.14-2.14,2.48-2.81,4.01s-0.99,3.21-0.99,5.02   s0.33,3.49,0.99,5.02s1.59,2.87,2.79,4.01c1.2,1.14,2.62,2.02,4.26,2.65c1.64,0.63,3.42,0.94,5.35,0.94c1.91,0,3.67-0.31,5.28-0.94   c1.62-0.63,3.02-1.51,4.22-2.63c1.2-1.13,2.13-2.46,2.81-4.01c0.67-1.55,1.01-3.23,1.01-5.04c0-1.84-0.34-3.52-1.01-5.04   C386.32,424.79,385.39,423.46,384.19,422.32z M381.71,434.52c-0.38,0.95-0.92,1.78-1.62,2.48s-1.51,1.23-2.42,1.6   c-0.92,0.37-1.92,0.56-3.02,0.56c-1.09,0-2.1-0.19-3.03-0.56c-0.93-0.37-1.74-0.91-2.42-1.6c-0.69-0.7-1.22-1.53-1.6-2.49   c-0.38-0.96-0.58-2.02-0.58-3.16c0-1.16,0.19-2.22,0.58-3.17c0.38-0.95,0.92-1.78,1.62-2.48s1.51-1.23,2.42-1.6   c0.92-0.37,1.92-0.56,3.02-0.56c1.09,0,2.1,0.19,3.03,0.56c0.93,0.37,1.74,0.91,2.42,1.6c0.69,0.7,1.22,1.52,1.6,2.48   c0.38,0.95,0.58,2.01,0.58,3.17C382.29,432.51,382.1,433.57,381.71,434.52z M421.28,419.14h5.58v24.42h-4.64l-12.17-14.82v14.82   h-5.58v-24.42h4.67l12.14,14.81V419.14z M463.24,436.41c0,1.37-0.38,2.63-1.15,3.77c-0.77,1.14-1.91,2.06-3.44,2.76   c-1.52,0.7-3.45,1.05-5.77,1.05c-1.95,0-3.82-0.26-5.62-0.78c-1.79-0.52-3.23-1.2-4.33-2.04l1.92-4.26   c1.05,0.74,2.28,1.35,3.71,1.83c1.43,0.48,2.88,0.72,4.34,0.72c1.12,0,2.02-0.11,2.7-0.33c0.69-0.22,1.19-0.53,1.52-0.92   c0.33-0.4,0.49-0.85,0.49-1.36c0-0.65-0.26-1.17-0.77-1.55c-0.51-0.38-1.19-0.7-2.02-0.94c-0.84-0.24-1.76-0.48-2.77-0.7   c-1.01-0.22-2.02-0.49-3.03-0.82c-1.01-0.33-1.94-0.74-2.77-1.26c-0.84-0.51-1.52-1.19-2.04-2.02c-0.52-0.84-0.78-1.91-0.78-3.21   c0-1.4,0.38-2.67,1.13-3.82c0.76-1.15,1.89-2.07,3.42-2.76c1.52-0.69,3.44-1.03,5.74-1.03c1.53,0,3.05,0.18,4.53,0.54   c1.49,0.36,2.8,0.9,3.94,1.62l-1.74,4.29c-1.14-0.65-2.28-1.13-3.42-1.45c-1.14-0.31-2.26-0.47-3.35-0.47   c-1.09,0-1.99,0.13-2.69,0.38c-0.7,0.26-1.2,0.59-1.5,0.99c-0.3,0.41-0.45,0.88-0.45,1.41c0,0.63,0.26,1.13,0.77,1.52   c0.51,0.38,1.19,0.69,2.02,0.92c0.84,0.23,1.76,0.47,2.77,0.7c1.01,0.23,2.02,0.5,3.03,0.8c1.01,0.3,1.94,0.71,2.77,1.22   c0.84,0.51,1.52,1.19,2.04,2.02C462.98,434.07,463.24,435.13,463.24,436.41z"/>
</g>
</symbol>
<symbol id="linkedin" fill="currentColor" viewBox="0 0 16 16">
  <path d="M0 1.146C0 .513.526 0 1.175 0h13.65C15.474 0 16 .513 16 1.146v13.708c0 .633-.526 1.146-1.175 1.146H1.175C.526 16 0 15.487 0 14.854zm4.943 12.248V6.169H2.542v7.225zm-1.2-8.212c.837 0 1.358-.554 1.358-1.248-.015-.709-.52-1.248-1.342-1.248S2.4 3.226 2.4 3.934c0 .694.521 1.248 1.327 1.248zm4.908 8.212V9.359c0-.216.016-.432.08-.586.173-.431.568-.878 1.232-.878.869 0 1.216.662 1.216 1.634v3.865h2.401V9.25c0-2.22-1.184-3.252-2.764-3.252-1.274 0-1.845.7-2.165 1.193v.025h-.016l.016-.025V6.169h-2.4c.03.678 0 7.225 0 7.225z"/>
</symbol>
<symbol id="instagram" fill="currentColor" viewBox="0 0 16 16">
  <path d="M8 0C5.829 0 5.556.01 4.703.048 3.85.088 3.269.222 2.76.42a3.9 3.9 0 0 0-1.417.923A3.9 3.9 0 0 0 .42 2.76C.222 3.268.087 3.85.048 4.7.01 5.555 0 5.827 0 8.001c0 2.172.01 2.444.048 3.297.04.852.174 1.433.372 1.942.205.526.478.972.923 1.417.444.445.89.719 1.416.923.51.198 1.09.333 1.942.372C5.555 15.99 5.827 16 8 16s2.444-.01 3.298-.048c.851-.04 1.434-.174 1.943-.372a3.9 3.9 0 0 0 1.416-.923c.445-.445.718-.891.923-1.417.197-.509.332-1.09.372-1.942C15.99 10.445 16 10.173 16 8s-.01-2.445-.048-3.299c-.04-.851-.175-1.433-.372-1.941a3.9 3.9 0 0 0-.923-1.417A3.9 3.9 0 0 0 13.24.42c-.51-.198-1.092-.333-1.943-.372C10.443.01 10.172 0 7.998 0zm-.717 1.442h.718c2.136 0 2.389.007 3.232.046.78.035 1.204.166 1.486.275.373.145.64.319.92.599s.453.546.598.92c.11.281.24.705.275 1.485.039.843.047 1.096.047 3.231s-.008 2.389-.047 3.232c-.035.78-.166 1.203-.275 1.485a2.5 2.5 0 0 1-.599.919c-.28.28-.546.453-.92.598-.28.11-.704.24-1.485.276-.843.038-1.096.047-3.232.047s-2.39-.009-3.233-.047c-.78-.036-1.203-.166-1.485-.276a2.5 2.5 0 0 1-.92-.598 2.5 2.5 0 0 1-.6-.92c-.109-.281-.24-.705-.275-1.485-.038-.843-.046-1.096-.046-3.233s.008-2.388.046-3.231c.036-.78.166-1.204.276-1.486.145-.373.319-.64.599-.92s.546-.453.92-.598c.282-.11.705-.24 1.485-.276.738-.034 1.024-.044 2.515-.045zm4.988 1.328a.96.96 0 1 0 0 1.92.96.96 0 0 0 0-1.92m-4.27 1.122a4.109 4.109 0 1 0 0 8.217 4.109 4.109 0 0 0 0-8.217m0 1.441a2.667 2.667 0 1 1 0 5.334 2.667 2.667 0 0 1 0-5.334"/>
</symbol>
<symbol id="facebook" fill="currentColor" viewBox="0 0 16 16">
  <path d="M16 8.049c0-4.446-3.582-8.05-8-8.05C3.58 0-.002 3.603-.002 8.05c0 4.017 2.926 7.347 6.75 7.951v-5.625h-2.03V8.05H6.75V6.275c0-2.017 1.195-3.131 3.022-3.131.876 0 1.791.157 1.791.157v1.98h-1.009c-.993 0-1.303.621-1.303 1.258v1.51h2.218l-.354 2.326H9.25V16c3.824-.604 6.75-3.934 6.75-7.951"/>
</symbol>
<symbol id="check2" fill="currentColor" viewBox="0 0 16 16">
  <path d="M13.854 3.646a.5.5 0 0 1 0 .708l-7 7a.5.5 0 0 1-.708 0l-3.5-3.5a.5.5 0 1 1 .708-.708L6.5 10.293l6.646-6.647a.5.5 0 0 1 .708 0z"/>
</symbol>
<symbol id="circle-half" fill="currentColor" viewBox="0 0 16 16">
  <path d="M8 15A7 7 0 1 0 8 1v14zm0 1A8 8 0 1 1 8 0a8 8 0 0 1 0 16z"/>
</symbol>
<symbol id="moon-stars-fill" fill="currentColor" viewBox="0 0 16 16">
  <path d="M6 .278a.768.768 0 0 1 .08.858 7.208 7.208 0 0 0-.878 3.46c0 4.021 3.278 7.277 7.318 7.277.527 0 1.04-.055 1.533-.16a.787.787 0 0 1 .81.316.733.733 0 0 1-.031.893A8.349 8.349 0 0 1 8.344 16C3.734 16 0 12.286 0 7.71 0 4.266 2.114 1.312 5.124.06A.752.752 0 0 1 6 .278z"/>
  <path d="M10.794 3.148a.217.217 0 0 1 .412 0l.387 1.162c.173.518.579.924 1.097 1.097l1.162.387a.217.217 0 0 1 0 .412l-1.162.387a1.734 1.734 0 0 0-1.097 1.097l-.387 1.162a.217.217 0 0 1-.412 0l-.387-1.162A1.734 1.734 0 0 0 9.31 6.593l-1.162-.387a.217.217 0 0 1 0-.412l1.162-.387a1.734 1.734 0 0 0 1.097-1.097l.387-1.162zM13.863.099a.145.145 0 0 1 .274 0l.258.774c.115.346.386.617.732.732l.774.258a.145.145 0 0 1 0 .274l-.774.258a1.156 1.156 0 0 0-.732.732l-.258.774a.145.145 0 0 1-.274 0l-.258-.774a1.156 1.156 0 0 0-.732-.732l-.774-.258a.145.145 0 0 1 0-.274l.774-.258c.346-.115.617-.386.732-.732L13.863.1z"/>
</symbol>
<symbol id="sun-fill" fill="currentColor" viewBox="0 0 16 16">
  <path d="M8 12a4 4 0 1 0 0-8 4 4 0 0 0 0 8zM8 0a.5.5 0 0 1 .5.5v2a.5.5 0 0 1-1 0v-2A.5.5 0 0 1 8 0zm0 13a.5.5 0 0 1 .5.5v2a.5.5 0 0 1-1 0v-2A.5.5 0 0 1 8 13zm8-5a.5.5 0 0 1-.5.5h-2a.5.5 0 0 1 0-1h2a.5.5 0 0 1 .5.5zM3 8a.5.5 0 0 1-.5.5h-2a.5.5 0 0 1 0-1h2A.5.5 0 0 1 3 8zm10.657-5.657a.5.5 0 0 1 0 .707l-1.414 1.415a.5.5 0 1 1-.707-.708l1.414-1.414a.5.5 0 0 1 .707 0zm-9.193 9.193a.5.5 0 0 1 0 .707L3.05 13.657a.5.5 0 0 1-.707-.707l1.414-1.414a.5.5 0 0 1 .707 0zm9.193 2.121a.5.5 0 0 1-.707 0l-1.414-1.414a.5.5 0 0 1 .707-.707l1.414 1.414a.5.5 0 0 1 0 .707zM4.464 4.465a.5.5 0 0 1-.707 0L2.343 3.05a.5.5 0 1 1 .707-.707l1.414 1.414a.5.5 0 0 1 0 .708z"/>
</symbol>
</svg>
